<svg width="95" height="34" viewBox="0 0 95 34" fill="none" xmlns="http://www.w3.org/2000/svg">
<g id="Logo" clip-path="url(#clip0_1_82)">
<path id="Vector" d="M11.0483 4.25H0.681885V29.0417L11.0483 4.25Z" fill="#4C4C4D"/>
<path id="Vector_2" d="M18.342 4.25H28.695V29.0417L18.342 4.25Z" fill="#4C4C4D"/>
<path id="Vector_3" d="M14.695 13.3875L21.293 29.0418H16.9641L14.9921 24.0578H10.1635L14.695 13.3875Z" fill="#4C4C4D"/>
<path id="Vector_4" d="M45.6074 20.0147L46.8298 23.5197C46.8703 23.6075 46.9311 23.648 47.0392 23.648H49.3893C49.5177 23.648 49.5379 23.5872 49.5177 23.4589L44.662 9.97243C44.6417 9.86438 44.6214 9.84412 44.5134 9.84412H41.5959C41.5149 9.84412 41.4676 9.9049 41.4676 9.99269C41.4271 10.7018 41.3663 10.9179 41.2785 11.1273L36.9496 23.4387C36.9293 23.5873 36.9766 23.648 37.0982 23.648H39.1985C39.3268 23.648 39.3876 23.6075 39.4349 23.4792L40.5897 20.0147H45.6074ZM41.2583 17.7253C41.8931 15.8074 42.7305 13.3491 43.0682 11.9444H43.0884C43.5071 13.4167 44.4931 16.3341 44.9389 17.7253H41.2583Z" fill="#4C4C4D"/>
<path id="Vector_5" d="M55.7601 23.8567C57.023 23.8567 58.3669 23.6271 59.7311 23.0395C59.8391 22.999 59.8594 22.9517 59.8594 22.8504C59.8189 22.4723 59.7716 21.9252 59.7716 21.5065V8.81016C59.7716 8.72912 59.7716 8.6886 59.6703 8.6886H57.3809C57.2931 8.6886 57.2526 8.72912 57.2526 8.83717V13.1391C56.8947 13.0986 56.6448 13.0783 56.3476 13.0783C52.6535 13.0783 50.3844 15.5163 50.3844 18.562C50.3844 22.0941 52.7143 23.8567 55.7601 23.8567ZM57.2526 21.5065C56.8744 21.6281 56.4557 21.6754 56.0302 21.6754C54.3554 21.6754 52.9845 20.7299 52.9845 18.4337C52.9845 16.401 54.3959 15.1989 56.2666 15.1989C56.6448 15.1989 56.9757 15.2394 57.2526 15.3474V21.5065Z" fill="#4C4C4D"/>
<path id="Vector_6" d="M67.1615 13.0793C64.0076 13.0793 62.0559 15.4971 62.0559 18.4821C62.0559 21.1496 63.6092 23.8577 67.1142 23.8577C70.0789 23.8577 72.159 21.6764 72.159 18.4145C72.159 15.5376 70.3963 13.0793 67.1615 13.0793ZM67.0331 15.1999C68.816 15.1999 69.5724 16.7329 69.5724 18.4821C69.5724 20.6431 68.4581 21.7169 67.1615 21.7169C65.5609 21.7169 64.6154 20.373 64.6154 18.4348C64.6154 16.4425 65.6217 15.1999 67.0331 15.1999Z" fill="#4C4C4D"/>
<path id="Vector_7" d="M74.5269 8.6886C74.4391 8.6886 74.3783 8.72912 74.3783 8.83717V23.2084C74.3783 23.2692 74.4391 23.3772 74.5269 23.3975C75.5331 23.7081 76.5866 23.8567 77.6739 23.8567C80.7872 23.8567 83.8128 21.9252 83.8128 18.0353C83.8128 15.2191 81.8813 13.0783 78.8558 13.0783C78.1602 13.0783 77.5119 13.1864 76.9446 13.3754L76.9176 8.85743C76.9176 8.70886 76.877 8.6886 76.7285 8.6886H74.5269ZM81.2262 18.2919C81.2262 20.6218 79.6324 21.7159 77.9103 21.7159C77.5524 21.7159 77.235 21.6956 76.9446 21.6078V15.4757C77.2755 15.3474 77.6739 15.2394 78.4101 15.2394C80.0714 15.2394 81.2262 16.2929 81.2262 18.2919Z" fill="#4C4C4D"/>
<path id="Vector_8" d="M92.3568 19.0493C93.3833 19.0493 94.2275 19.0291 94.5179 18.9615C94.626 18.9413 94.6665 18.9008 94.6868 18.813C94.7475 18.5834 94.7745 18.1039 94.7745 17.5163C94.7745 15.5173 93.5724 13.0793 90.4659 13.0793C87.2918 13.0793 85.5292 15.6659 85.5292 18.5834C85.5292 21.1699 86.8934 23.8577 90.7158 23.8577C92.1475 23.8577 93.0727 23.6281 93.8696 23.2499C93.9506 23.2094 93.9911 23.1419 93.9911 23.0203V21.2712C93.9911 21.1699 93.9304 21.1496 93.8696 21.1902C93.0727 21.5278 92.2083 21.6967 91.2628 21.6967C89.122 21.6967 88.1495 20.5148 88.0887 19.0493H92.3568ZM88.0887 17.2394C88.2575 16.2129 88.9059 15.0986 90.3578 15.0986C91.9584 15.0986 92.3771 16.4425 92.3771 17.0503C92.3771 17.0706 92.3771 17.1584 92.3771 17.2192C92.2893 17.2394 92.0192 17.2394 91.2223 17.2394H88.0887Z" fill="#4C4C4D"/>
</g>
<defs>
<clipPath id="clip0_1_82">
<rect width="94.2083" height="34" fill="white" transform="translate(0.681519)"/>
</clipPath>
</defs>
</svg>
