<svg width="79" height="34" viewBox="0 0 79 34" fill="none" xmlns="http://www.w3.org/2000/svg">
<g id="Logo" clip-path="url(#clip0_1_77)">
<g id="Vector">
<path fill-rule="evenodd" clip-rule="evenodd" d="M48.6607 26.7792C44.1532 30.1016 37.6198 31.8743 31.9947 31.8743C24.1074 31.8743 17.0068 28.957 11.6349 24.1051C11.2128 23.7236 11.591 23.2036 12.0975 23.5007C17.8948 26.8738 25.0629 28.903 32.4674 28.903C37.4611 28.903 42.9546 27.8698 48.0057 25.7258C48.7688 25.4016 49.4069 26.2255 48.6607 26.7792Z" fill="#4C4C4D"/>
<path fill-rule="evenodd" clip-rule="evenodd" d="M50.5347 24.6352C49.9607 23.8992 46.7261 24.2875 45.2743 24.4596C44.8319 24.5137 44.7644 24.1288 45.1628 23.8519C47.739 22.0388 51.9663 22.5621 52.4593 23.1699C52.9522 23.781 52.3309 28.0184 49.9101 30.0409C49.5387 30.3515 49.1841 30.1861 49.3496 29.7741C49.8932 28.4168 51.1121 25.3747 50.5347 24.6352Z" fill="#4C4C4D"/>
</g>
<g id="Vector_2">
<path fill-rule="evenodd" clip-rule="evenodd" d="M45.3767 11.0526V9.29008C45.3767 9.02335 45.5792 8.8444 45.8223 8.8444H53.7131C53.9663 8.8444 54.1689 9.02672 54.1689 9.29008V10.7993C54.1655 11.0526 53.9528 11.3835 53.5746 11.9068L49.4858 17.7446C51.0052 17.7075 52.609 17.9337 53.9865 18.7103C54.2972 18.8859 54.3816 19.1425 54.4052 19.3957V21.2764C54.4052 21.533 54.1216 21.8335 53.8245 21.6782C51.3968 20.4053 48.1723 20.2668 45.4881 21.6917C45.2146 21.8403 44.9276 21.5431 44.9276 21.2865V19.5004C44.9276 19.2134 44.931 18.7238 45.218 18.2883L49.9551 11.4949H45.8325C45.5792 11.4949 45.3767 11.3159 45.3767 11.0526Z" fill="#4C4C4D"/>
<path fill-rule="evenodd" clip-rule="evenodd" d="M16.5926 22.0496H14.192C13.9624 22.0327 13.7801 21.8605 13.7632 21.6411V9.3205C13.7632 9.07402 13.9691 8.87818 14.2258 8.87818H16.4643C16.6973 8.88831 16.883 9.06726 16.8999 9.29011V10.9007H16.9438C17.5279 9.34413 18.6252 8.6182 20.1041 8.6182C21.6066 8.6182 22.5453 9.34413 23.2205 10.9007C23.8013 9.34413 25.1215 8.6182 26.5362 8.6182C27.5424 8.6182 28.6431 9.0335 29.315 9.96539C30.0747 11.002 29.9194 12.5078 29.9194 13.828L29.916 21.6039C29.916 21.8504 29.71 22.0496 29.4534 22.0496H27.0562C26.8164 22.0327 26.624 21.8403 26.624 21.6039V15.0739C26.624 14.554 26.6713 13.2574 26.5565 12.7644C26.3775 11.9372 25.8407 11.7042 25.1451 11.7042C24.5644 11.7042 23.9566 12.0925 23.7101 12.7138C23.4636 13.3351 23.4873 14.375 23.4873 15.0739V21.6039C23.4873 21.8504 23.2813 22.0496 23.0247 22.0496H20.6275C20.3844 22.0327 20.1953 21.8403 20.1953 21.6039L20.1919 15.0739C20.1919 13.6997 20.4181 11.6772 18.713 11.6772C16.9877 11.6772 17.0552 13.6491 17.0552 15.0739V21.6039C17.0552 21.8504 16.8492 22.0496 16.5926 22.0496Z" fill="#4C4C4D"/>
<path fill-rule="evenodd" clip-rule="evenodd" d="M60.9621 8.6182C64.5243 8.6182 66.4522 11.6772 66.4522 15.5669C66.4522 19.3248 64.3217 22.3062 60.9621 22.3062C57.4642 22.3062 55.5599 19.2472 55.5599 15.4352C55.5599 11.5996 57.4878 8.6182 60.9621 8.6182ZM60.9824 11.1336C59.2131 11.1336 59.1017 13.5444 59.1017 15.0469C59.1017 16.5528 59.0781 19.7671 60.9621 19.7671C62.8225 19.7671 62.9103 17.1741 62.9103 15.5939C62.9103 14.554 62.8664 13.3114 62.5524 12.3255C62.2823 11.4679 61.7455 11.1336 60.9824 11.1336Z" fill="#4C4C4D"/>
<path fill-rule="evenodd" clip-rule="evenodd" d="M71.0712 22.0496H68.6807C68.441 22.0327 68.2486 21.8403 68.2486 21.6039L68.2452 9.27998C68.2654 9.05376 68.4646 8.87818 68.7077 8.87818H70.9328C71.1422 8.88831 71.3143 9.03012 71.3616 9.22258V11.1066H71.4055C72.0774 9.42179 73.0194 8.6182 74.6773 8.6182C75.7543 8.6182 76.8044 9.00649 77.4797 10.0701C78.1077 11.056 78.1077 12.7138 78.1077 13.9057V21.6613C78.0807 21.8774 77.8815 22.0496 77.6451 22.0496H75.2377C75.0183 22.0327 74.836 21.8707 74.8123 21.6613V14.9693C74.8123 13.6221 74.9676 11.6502 73.3098 11.6502C72.7257 11.6502 72.1888 12.0419 71.9221 12.6361C71.5845 13.3891 71.5406 14.1387 71.5406 14.9693V21.6039C71.5372 21.8504 71.3279 22.0496 71.0712 22.0496Z" fill="#4C4C4D"/>
<path fill-rule="evenodd" clip-rule="evenodd" d="M39.0864 16.1645C39.0864 17.0998 39.11 17.8797 38.6373 18.7103C38.2558 19.3856 37.648 19.8009 36.9761 19.8009C36.0544 19.8009 35.5141 19.0986 35.5141 18.062C35.5141 16.0159 37.3475 15.6445 39.0864 15.6445V16.1645ZM41.5073 22.0158C41.3486 22.1576 41.119 22.1678 40.9401 22.0732C40.1432 21.4114 39.998 21.1042 39.5625 20.4728C38.2457 21.8166 37.3104 22.2184 35.6053 22.2184C33.5828 22.2184 32.0128 20.9725 32.0128 18.4773C32.0128 16.5291 33.0662 15.2022 34.5721 14.5539C35.8754 13.9799 37.6953 13.8786 39.0864 13.72V13.4093C39.0864 12.8387 39.1303 12.1634 38.7927 11.6705C38.5023 11.2282 37.9418 11.0458 37.4455 11.0458C36.5304 11.0458 35.7167 11.5151 35.5175 12.4876C35.477 12.7036 35.3183 12.9164 35.0988 12.9265L32.7725 12.6766C32.5767 12.6327 32.3572 12.4741 32.4146 12.1736C32.9481 9.35086 35.5006 8.5 37.7831 8.5C38.9513 8.5 40.4775 8.81063 41.3993 9.69525C42.5675 10.7858 42.4561 12.2411 42.4561 13.8246V17.5657C42.4561 18.6901 42.922 19.183 43.361 19.7908C43.5129 20.0069 43.5467 20.2668 43.3508 20.4289C42.8612 20.8375 41.9901 21.5972 41.5107 22.0226L41.5073 22.0158Z" fill="#4C4C4D"/>
<path fill-rule="evenodd" clip-rule="evenodd" d="M7.61468 16.1645C7.61468 17.0997 7.63831 17.8797 7.16562 18.7103C6.78408 19.3856 6.1797 19.8009 5.50442 19.8009C4.58265 19.8009 4.0458 19.0986 4.0458 18.062C4.0458 16.0159 5.8792 15.6445 7.61468 15.6445V16.1645ZM10.0356 22.0158C9.87688 22.1576 9.64728 22.1678 9.46833 22.0732C8.6715 21.4114 8.52969 21.1042 8.09075 20.4728C6.77395 21.8166 5.84206 22.2184 4.13359 22.2184C2.11449 22.2184 0.541077 20.9725 0.541077 18.4773C0.541077 16.5291 1.5979 15.2022 3.1004 14.5539C4.4037 13.9799 6.22359 13.8786 7.61468 13.72V13.4093C7.61468 12.8387 7.65857 12.1634 7.32431 11.6705C7.03056 11.2281 6.47007 11.0458 5.97711 11.0458C5.06211 11.0458 4.24501 11.5151 4.0458 12.4876C4.00528 12.7036 3.84659 12.9164 3.6305 12.9265L1.30077 12.6766C1.10494 12.6327 0.888848 12.474 0.94287 12.1735C1.47972 9.35086 4.02892 8.5 6.31138 8.5C7.47962 8.5 9.00576 8.81063 9.92753 9.69525C11.0958 10.7858 10.9843 12.2411 10.9843 13.8246V17.5657C10.9843 18.69 11.4503 19.183 11.8892 19.7908C12.0445 20.0068 12.0783 20.2668 11.8825 20.4289C11.3929 20.8374 10.5218 21.5971 10.0423 22.0226L10.0356 22.0158Z" fill="#4C4C4D"/>
</g>
</g>
<defs>
<clipPath id="clip0_1_77">
<rect width="77.9166" height="34" fill="white" transform="translate(0.541748)"/>
</clipPath>
</defs>
</svg>
