<svg xmlns="http://www.w3.org/2000/svg" width="715.748" height="583.937"><path d="M824.969 642.757c1.881-1.597 2.655-2.07 3.366-2.07.522 0 1.254.254 1.735.578l-.753 1.878-.209-.114c-1.024-.553-1.526-.746-2.07-.746-.627 0-1.191.307-2.069 1.159v4.87c0 1.544.25 1.878 1.359 1.878h.272v.465h-5.185v-.465h.25c1.13 0 1.38-.334 1.38-1.878v-5.256c0-1.352-.271-1.624-1.546-1.624h-.377v-.465l3.847-.307M861.72 638.343h-.46l-.02-.22c-.314-1.236-.627-1.868-1.317-2.395a3.54 3.54 0 0 0-2.153-.737c-1.652 0-2.843 1.07-2.843 2.501 0 .772.397 1.623 1.024 2.238.376.35.815.684 1.317 1.009.355.228.962.605 1.819 1.132 1.275.798 1.902 1.299 2.446 1.957.69.825 1.045 1.737 1.045 2.729a4.483 4.483 0 0 1-4.474 4.484c-.857 0-1.338-.114-2.613-.527-.648-.219-.899-.298-1.004-.298-.271 0-.46.193-.606.606h-.46v-4.265h.46l.021.298c.23 1.492.523 2.062 1.443 2.756.648.544 1.484.824 2.341.824 1.902 0 3.157-1.158 3.157-2.86 0-.966-.356-1.632-1.317-2.396-.586-.5-1.192-.939-1.84-1.351-1.024-.658-1.693-1.07-2.049-1.325a6.734 6.734 0 0 1-1.129-1.045c-.69-.85-1.003-1.79-1.003-2.887 0-2.43 1.756-4.08 4.286-4.08.794 0 1.275.088 2.195.386.564.193.752.22.92.22.209 0 .292-.08.376-.325 0-.035.042-.062.042-.114h.397M849.094 645.372c-.418.193-.523.246-1.129.439-1.84.605-2.383 1.106-2.383 2.317 0 1.017.69 1.842 1.526 1.842.773 0 1.484-.438 1.986-1.237v-3.36zm3.366 3.545c-.021 1.159-.816 1.984-1.924 1.984-.794 0-1.296-.387-1.651-1.317-.962.992-1.568 1.317-2.592 1.317-1.547 0-2.802-1.15-2.802-2.554s.878-2.176 3.24-2.834c1.443-.422 1.736-.5 2.154-.746v-.72c0-1.404-.878-2.395-2.174-2.395-1.13 0-1.965.631-2.509 1.904l-.084.22-.46-.141c.419-1.79 1.84-2.949 3.596-2.949 1.296 0 2.488.606 3.073 1.571.356.605.46 1.106.46 2.51v3.633c0 1.132.105 1.456.523 1.456.334 0 .543-.298.69-.939M834.084 648.066c-1.422 0-2.404-1.404-2.404-3.492 0-2.01.982-3.361 2.425-3.361 1.442 0 2.404 1.351 2.404 3.334 0 2.15-.962 3.52-2.425 3.52zm-.836 5.318 1.881.386c2.801.606 3.575 1.044 3.575 2.15 0 1.29-1.505 2.203-3.659 2.203-2.78 0-4.891-1.08-4.891-2.484 0-.991.982-1.816 2.822-2.308l.272.053zm6.627-10.135V648.865c0 .991-.356 1.351-1.36 1.351h-.501v.465h5.352v-.465c-1.464-.026-1.652-.246-1.652-1.869v-7.757l-2.195.21h-3.094c-.502 0-.752 0-1.38-.061-.439-.018-.836-.018-1.17-.018-2.384 0-4.119 1.65-4.119 3.932 0 1.93 1.066 3.246 3.073 3.773v.053c-2.216.833-3.052 1.57-3.052 2.755 0 .851.774 1.518 2.09 1.816v.062c-2.508 1.185-3.135 1.816-3.135 3.054 0 1.79 1.923 2.974 4.83 2.974 3.323 0 5.957-1.79 5.957-4.054 0-1.43-1.087-2.334-3.303-2.773l-2.258-.447c-2.257-.439-2.696-.685-2.696-1.404 0-.685 1.212-1.51 2.759-1.87 2.341-.052 4.056-1.71 4.056-3.94 0-.965-.398-1.956-1.108-2.781 0 0 .334-.29 1.045-.325h.564c.9 0 1.297.386 1.297 1.238v.052" style="fill:#82755f;fill-opacity:1;fill-rule:nonzero;stroke:none" transform="matrix(6.572 0 0 6.572 -5162.603 -3882.691)"/><path d="M853.38 655.894h39.155v-2.036H853.38v2.036z" style="fill:#e22739;fill-opacity:1;fill-rule:nonzero;stroke:none" transform="matrix(6.572 0 0 6.572 -5162.603 -3882.691)"/><path d="M874.808 648.733c-.502.799-1.213 1.237-1.986 1.237-.816 0-1.506-.825-1.506-1.842 0-1.211.523-1.712 2.363-2.317.606-.193.71-.246 1.129-.439v3.361zm2.905.184c-.125.64-.355.94-.69.94-.397 0-.522-.325-.522-1.457v-3.633c0-1.404-.105-1.905-.46-2.51-.585-.965-1.756-1.57-3.052-1.57-1.777 0-3.199 1.158-3.617 2.948l.481.14.084-.22c.543-1.272 1.358-1.903 2.487-1.903 1.297 0 2.195.991 2.195 2.395v.72c-.418.245-.731.324-2.153.746-2.362.658-3.261 1.43-3.261 2.834 0 .254.063.5.146.728-.564.58-1.045.781-1.735.781-1.338 0-1.756-.632-1.756-2.729V641.6h3.387v-.632h-3.387v-3.36h-.502c-.815 1.675-1.798 2.78-3.22 3.553v.439h1.82v6.502c0 1.624 1.191 2.8 2.822 2.8 1.003 0 1.965-.457 2.78-1.36.481.807 1.401 1.36 2.467 1.36 1.025 0 1.61-.325 2.592-1.317.356.93.837 1.317 1.652 1.317 1.087 0 1.881-.825 1.923-1.984M836.801 668.688v-7.635l-3.7.36v.474h.544c.92 0 1.296.386 1.296 1.237v6.082c0 .991-.356 1.351-1.338 1.351h-.23c-1.108 0-1.359-.334-1.359-1.87v-3.992c0-2.264-1.296-3.642-3.324-3.642-1.254 0-2.383.615-3.512 1.905v-1.93l-3.512.306v.465h.272c1.108.035 1.4.334 1.4 1.43V668.689c0 1.535-.271 1.869-1.38 1.869h-.167c-1.129 0-1.588-.71-1.588-2.501v-9.837c0-1.781.46-2.5 1.588-2.5h.188v-.475h-5.581v.474h.104c1.13 0 1.589.72 1.589 2.501v9.504c-1.087 1.71-2.697 2.615-4.536 2.615-1.422 0-2.697-.606-3.324-1.598-.44-.684-.628-1.728-.628-3.22v-7.3c0-1.782.44-2.502 1.59-2.502h.187v-.474h-5.707v.474h.23c1.13 0 1.568.72 1.568 2.501V665.801c0 3.378 2.07 5.502 5.373 5.502 2.09 0 3.742-.799 5.247-2.475v2.194h8.718v-.465h-.272c-1.108 0-1.359-.334-1.359-1.87v-4.817c.94-1.325 1.798-1.878 2.76-1.878 1.526 0 2.153.799 2.153 2.756v3.94c0 1.535-.251 1.869-1.38 1.869h-.272v.465h10.014v-.465c-1.463-.026-1.652-.246-1.652-1.87M848.383 661.8c-1.108.087-1.484.36-1.881 1.35l-.168.466-2.968 7.634h-.44l-3.156-7.687c-.669-1.597-.815-1.729-2.049-1.764v-.465h4.746v.465c-.648.062-.962.334-.962.799 0 .254.042.439.293 1.105l2.07 4.958 1.86-4.879c.21-.526.314-.903.314-1.096 0-.553-.272-.773-1.004-.852-.042 0-.125-.035-.23-.035v-.465h3.575M871.128 664.002c-.02-.08-.062-.132-.083-.193-.523-1.676-1.192-2.255-2.425-2.255-.962 0-1.61.526-1.61 1.325 0 .85.48 1.342 1.944 1.974 1.443.64 1.798.834 2.237 1.246.606.58.962 1.378.962 2.203 0 1.623-1.401 2.974-3.115 2.974-.523 0-1.192-.166-1.756-.438-.335-.167-.565-.228-.732-.228-.272 0-.48.166-.564.473 0 .027-.021.114-.063.193h-.46v-3.334h.46c.502 1.843 1.568 2.834 3.136 2.834.961 0 1.714-.71 1.714-1.676 0-1.044-.585-1.544-2.843-2.51-1.59-.684-2.342-1.535-2.342-2.746 0-1.518 1.36-2.79 2.99-2.79.313 0 .648.06.961.14l.649.22c.146.025.25.06.397.06.25 0 .397-.113.543-.386h.44v2.914M876.355 668.688c0 1.623.188 1.843 1.651 1.869v.465h-5.352v-.465h.502c.983 0 1.338-.36 1.338-1.351v-6.082c0-.85-.376-1.237-1.275-1.237h-.565v-.474l3.7-.36M890.11 661.334v.465c.732.062.983.307.983.913 0 .246-.042.518-.188.939l-1.735 5.116-2.174-5.01c-.251-.633-.335-.852-.335-1.185 0-.466.23-.685.836-.773v-.465h-6.355v-3.36h-.502c-.815 1.684-1.819 2.781-3.22 3.553v.439h1.82v6.502c0 1.624 1.191 2.808 2.8 2.808 1.109 0 2.133-.526 2.99-1.57l-.313-.36c-.606.658-1.108.877-1.819.877-1.338 0-1.756-.631-1.756-2.72v-5.537h1.693v.009c1.108.026 1.443.079 1.965 1.176l.189.439 3.303 7.713-1.192 3.528c-.543 1.65-1.317 2.395-2.53 2.395-.334 0-.543-.061-.94-.22l-.627 1.817c.522.22.752.272 1.128.272.753 0 1.401-.36 1.986-1.044.69-.825.9-1.325 1.652-3.501l3.554-10.486c.543-1.633 1.17-2.264 2.237-2.264v-.466" style="fill:#82755f;fill-opacity:1;fill-rule:nonzero;stroke:none" transform="matrix(6.572 0 0 6.572 -5162.603 -3882.691)"/><path d="M853.819 607.463c-.23 1.703-.502 6.889 2.613 10.96 2.864 3.783 6.334 5.432 6.899 10.197.083.825.083 1.615-.126 2.194-6.48-3.949-10.223-9.45-10.223-17.515 0-2.115.293-3.975.837-5.836" style="fill:#1a5dad;fill-opacity:1;fill-rule:nonzero;stroke:none" transform="matrix(6.572 0 0 6.572 -5162.603 -3882.691)"/><path d="M865.128 594.652c-1.421.877-2.99 2.711-3.512 3.694-7.358 13.549 7.547 19.323 7.025 28.633-.084 1.773-.502 3.818-1.547 5.502 0 0-1.84-.587-2.655-1.053.857-2.351.898-3.87.23-6.125-1.401-4.633-8.216-9.661-8.342-16.734-.083-5.52 2.864-11.618 8.801-13.917M875.686 611.553h17.017c.083 1.334.125 2.202.125 2.825 0 7.284-3.428 12.18-9.407 15.962-4.934 3.107-9.972 3.028-9.972 3.028 3.198-3.098 5.707-7.468 5.456-12.364-.23-4.353-1.923-6.503-3.22-9.451" style="fill:#1a5dad;fill-opacity:1;fill-rule:nonzero;stroke:none" transform="matrix(6.572 0 0 6.572 -5162.603 -3882.691)"/><path d="M873.532 591.343c-1.129.676-7.546 4.844-5.477 14.488 1.129 5.283 7.61 11.329 7.338 18.077-.188 4.862-2.969 8.442-3.721 9.442 0 0-1.547-.061-2.99-.43.941-1.439 2.237-4.422 2.509-7.002.92-8.846-8.07-12.672-7.672-21.684.271-6.353 3.888-10.846 10.013-12.89" style="fill:#1a5dad;fill-opacity:1;fill-rule:nonzero;stroke:none" transform="matrix(6.572 0 0 6.572 -5162.603 -3882.691)"/><path d="M887.936 641.213c1.652 0 2.613 1.097 2.613 3.027h-5.289c.251-2.062 1.13-3.027 2.676-3.027zm3.91 7.722c-.983.956-1.82 1.395-2.718 1.395-1.045 0-2.174-.693-2.906-1.764-.71-1.026-.92-1.904-1.003-3.86h7.17v-.325c.042-1.93-1.965-3.695-4.181-3.695-2.76 0-4.934 2.29-4.934 5.204a5 5 0 0 0 1.046 3.098c-.607.649-1.108.868-1.82.868-1.337 0-1.755-.632-1.755-2.729V641.6h3.386v-.632h-3.386v-3.36h-.502c-.815 1.675-1.819 2.78-3.22 3.553v.439h1.82v6.502c0 1.624 1.191 2.8 2.822 2.8 1.087 0 2.111-.518 2.947-1.562.962.982 2.32 1.562 3.93 1.562 1.36 0 2.363-.351 3.304-1.247M806.175 641.213c1.651 0 2.613 1.097 2.613 3.027H803.5c.25-2.062 1.129-3.027 2.676-3.027zm3.888 7.538c-1.045 1.088-1.944 1.58-2.906 1.58-1.045 0-2.174-.694-2.884-1.765-.732-1.026-.941-1.904-1.025-3.86h7.192v-.325c.02-1.93-1.986-3.695-4.202-3.695-2.195 0-4.035 1.474-4.683 3.563h-6.25v.491h.605c1.317 0 1.735.58 1.735 2.536v.895c0 1.712-.627 2.23-2.675 2.23-3.763 0-6.544-3.01-6.544-7.635 0-4.274 2.363-7.248 5.75-7.248 1.358 0 2.591.552 3.595 1.465.857.746 1.275 1.536 1.61 2.86h.397l-.126-4.65h-.46c-.209.386-.418.527-.898.527-.084 0-.147 0-.23-.036-.147 0-.314-.026-.46-.079-.126-.026-.398-.114-.816-.219-1.129-.307-1.735-.439-2.571-.439-4.578 0-8.132 3.826-8.132 8.75 0 4.764 3.575 7.45 9.177 7.45 1.59 0 3.429-.22 4.474-.501v-3.264c0-2.027.397-2.633 1.693-2.642a6.948 6.948 0 0 0-.104 1.15c0 2.922 2.195 5.01 5.247 5.01 1.443 0 2.488-.394 3.491-1.421M813.22 645.67c0 2.949 1.275 4.713 3.345 4.713 2.028 0 3.282-1.79 3.282-4.686 0-2.887-1.212-4.563-3.366-4.563-2.007 0-3.26 1.755-3.26 4.537zm8.446.088c0 2.94-2.279 5.143-5.331 5.143-3.052 0-5.352-2.203-5.352-5.143 0-2.895 2.3-5.15 5.247-5.15 3.053 0 5.436 2.255 5.436 5.15M852.188 661.58c1.651 0 2.613 1.106 2.613 3.027h-5.289c.25-2.062 1.129-3.027 2.676-3.027zm3.888 7.74c-.961.947-1.798 1.377-2.696 1.377-1.046 0-2.175-.693-2.906-1.763-.711-1.018-.92-1.896-1.004-3.853h7.192v-.333c.02-1.93-1.986-3.695-4.202-3.695-2.739 0-4.934 2.29-4.934 5.213 0 2.913 2.216 5.01 5.268 5.01 1.359 0 2.342-.35 3.282-1.228" style="fill:#82755f;fill-opacity:1;fill-rule:nonzero;stroke:none" transform="matrix(6.572 0 0 6.572 -5162.603 -3882.691)"/><path d="M860.404 663.124c1.881-1.597 2.634-2.07 3.366-2.07.522 0 1.254.254 1.735.579l-.753 1.877-.209-.114c-1.024-.544-1.526-.746-2.07-.746-.627 0-1.191.308-2.07 1.159v4.879c0 1.535.252 1.869 1.36 1.869h.271v.465h-5.184v-.465h.25c1.13 0 1.38-.334 1.38-1.87v-5.256c0-1.35-.271-1.632-1.547-1.632h-.376v-.465l3.847-.307M892.452 669.399c.188 0 .313-.07.313-.237 0-.14-.104-.229-.271-.229h-.418v.466h.376zm-.627-.685h.69c.397 0 .522.246.522.413a.452.452 0 0 1-.439.456v.009c.126.044.23.184.356.386l.188.307h-.314l-.125-.246c-.21-.35-.272-.412-.46-.412h-.167v.658h-.251v-1.57zm.648-.456a1.22 1.22 0 1 0 0 2.44c.669 0 1.212-.545 1.212-1.22 0-.676-.543-1.22-1.212-1.22zm0 2.676c-.816 0-1.464-.65-1.464-1.456a1.454 1.454 0 1 1 2.906 0 1.45 1.45 0 0 1-1.442 1.456" style="fill:#82755f;fill-opacity:1;fill-rule:nonzero;stroke:none" transform="matrix(6.572 0 0 6.572 -5162.603 -3882.691)"/></svg>