<svg width="79" height="34" viewBox="0 0 79 34" fill="none" xmlns="http://www.w3.org/2000/svg">
<g id="Logo" clip-path="url(#clip0_1_97)">
<path id="Vector" d="M10.8562 26.9618C9.67336 27.1695 8.46974 27.2318 7.22465 27.3977L3.42695 16.2747V27.875C2.24413 27.9995 1.16505 28.1655 0.0444336 28.3315V7.08154H3.19882L7.51513 19.1386V7.08154H10.8562V26.9618ZM17.3931 14.8635C18.6798 14.8635 20.6512 14.8013 21.834 14.8013V18.1215C20.3606 18.1215 18.6382 18.1215 17.3931 18.1838V23.1228C19.3438 22.9983 21.2945 22.8322 23.2658 22.7699V25.9655L14.0727 26.692V7.08154H23.2658V10.4019H17.3931V14.8635ZM35.6132 10.4019H32.1685V25.6753C31.0478 25.6753 29.9272 25.6754 28.8483 25.7167V10.4019H25.4035V7.08154H35.6134L35.6132 10.4019ZM41.0087 14.6353H45.5535V17.9556H41.0087V25.4886H37.7504V7.08154H47.0268V10.4019H41.0087V14.6353ZM52.4223 22.5832C54.3108 22.6246 56.2198 22.7701 58.0669 22.8737V26.1526C55.0994 25.9657 52.1318 25.7792 49.1021 25.7167V7.08154H52.4223V22.5832ZM60.8683 26.3809C61.9267 26.4432 63.0473 26.5055 64.1264 26.6298V7.08154H60.8683V26.3809ZM78.6736 7.08154L74.4609 17.1878L78.6736 28.3315C77.4284 28.1655 76.1833 27.9372 74.9381 27.7297L72.5518 21.5872L70.124 27.2318C68.9202 27.0241 67.7581 26.9618 66.5547 26.7958L70.8295 17.0632L66.9696 7.08154H70.5387L72.7177 12.6638L75.042 7.08154H78.6736V7.08154Z" fill="#4C4C4D"/>
</g>
<defs>
<clipPath id="clip0_1_97">
<rect width="78.625" height="34" fill="white" transform="translate(0.0446777)"/>
</clipPath>
</defs>
</svg>
