<svg width="92" height="34" viewBox="0 0 92 34" fill="none" xmlns="http://www.w3.org/2000/svg">
<g id="Logo" clip-path="url(#clip0_1_93)">
<g id="Vector">
<path d="M32.2136 24.6319V14.3221H32.3972L39.9018 24.6319H42.2634V9.49177H39.6394V19.7756H39.4557L31.9512 9.49177H29.5896V24.6319H32.2136ZM49.6892 24.8656C53.1528 24.8656 55.2783 22.6323 55.2783 18.8927C55.2783 15.1791 53.1528 12.9197 49.6892 12.9197C46.2518 12.9197 44.1001 15.1791 44.1001 18.8927C44.1264 22.6323 46.2256 24.8656 49.6892 24.8656ZM49.6892 22.6842C47.8524 22.6842 46.8028 21.3078 46.8028 18.8927C46.8028 16.5035 47.8524 15.1011 49.6892 15.1011C51.526 15.1011 52.5756 16.5035 52.5756 18.8927C52.5756 21.3078 51.526 22.6842 49.6892 22.6842ZM57.6661 10.3488V13.2314H55.8293V15.3089H57.6661V21.5675C57.6661 23.8009 58.7157 24.6838 61.3921 24.6838C61.8907 24.6838 62.3892 24.6319 62.7828 24.554V22.5284C62.4679 22.5544 62.258 22.5803 61.8907 22.5803C60.7886 22.5803 60.29 22.0869 60.29 20.9443V15.3089H62.7828V13.2314H60.29V10.3488H57.6661ZM64.3572 24.6319H66.9812V13.1534H64.3572V24.6319ZM65.6692 11.2577C66.5351 11.2577 67.2436 10.5565 67.2436 9.69952C67.2436 8.81657 66.5351 8.1154 65.6692 8.1154C64.8033 8.1154 64.0948 8.81657 64.0948 9.69952C64.0948 10.5565 64.8033 11.2577 65.6692 11.2577ZM74.1708 24.8656C77.6345 24.8656 79.7599 22.6323 79.7599 18.8927C79.7599 15.1791 77.6345 12.9197 74.1708 12.9197C70.7334 12.9197 68.5818 15.1791 68.5818 18.8927C68.5818 22.6323 70.681 24.8656 74.1708 24.8656ZM74.1708 22.6842C72.3341 22.6842 71.2845 21.3078 71.2845 18.8927C71.2845 16.5035 72.3341 15.1011 74.1708 15.1011C75.9814 15.1011 77.0572 16.5035 77.0572 18.8927C77.031 21.3078 75.9814 22.6842 74.1708 22.6842ZM81.308 24.6319H83.932V17.9578C83.932 16.2698 84.9291 15.205 86.4773 15.205C88.0779 15.205 88.8126 16.088 88.8126 17.8279V24.6319H91.4366V17.2047C91.4366 14.4519 90.0196 12.9197 87.4481 12.9197C85.7163 12.9197 84.5618 13.6988 84.0107 14.9973H83.827V13.1534H81.2818C81.308 13.1534 81.308 24.6319 81.308 24.6319Z" fill="#4C4C4D"/>
<path fill-rule="evenodd" clip-rule="evenodd" d="M4.43019 8.52274C5.1939 9.13884 5.47014 9.0902 6.90006 8.99292L20.3706 8.18226C20.6631 8.18226 20.4194 7.89041 20.3219 7.85799L18.0795 6.25287C17.657 5.9286 17.072 5.53948 15.9833 5.63676L2.95152 6.59335C2.4803 6.64199 2.3828 6.88519 2.57779 7.06353L4.43019 8.52274ZM5.24265 11.6519V25.79C5.24265 26.552 5.61638 26.8276 6.47759 26.779L21.2806 25.9197C22.1418 25.871 22.2393 25.3522 22.2393 24.7361V10.6953C22.2393 10.0792 21.9955 9.73874 21.4756 9.78738L6.00636 10.6953C5.43764 10.744 5.24265 11.0358 5.24265 11.6519ZM19.8506 12.4139C19.9481 12.8355 19.8506 13.2732 19.4282 13.3219L18.7132 13.4678V23.9092C18.0957 24.2335 17.527 24.428 17.0395 24.428C16.2758 24.428 16.0808 24.1848 15.5121 23.4715L10.8486 16.1592V23.2283L12.3273 23.5525C12.3273 23.5525 12.3273 24.4118 11.1411 24.4118L7.85877 24.6064C7.76127 24.4118 7.85877 23.9416 8.18375 23.8444L9.04495 23.6012V14.2623L7.85877 14.165C7.76127 13.7434 8.00501 13.1273 8.67122 13.0787L12.1973 12.8355L17.0558 20.2288V13.6948L15.8209 13.5489C15.7234 13.0301 16.1133 12.6409 16.5846 12.5923L19.8506 12.4139ZM1.86283 5.29628L15.4309 4.30726C17.0883 4.16134 17.527 4.25862 18.567 5.02065L22.8892 8.05255C23.6042 8.57138 23.8479 8.7173 23.8479 9.28476V25.9359C23.8479 26.9735 23.4742 27.5896 22.1418 27.6869L6.39634 28.6435C5.3889 28.6922 4.91767 28.5462 4.3977 27.8815L1.19661 23.7471C0.627893 22.9851 0.384155 22.4176 0.384155 21.7528V6.95004C0.384155 6.09073 0.774135 5.39356 1.86283 5.29628Z" fill="#4C4C4D"/>
</g>
</g>
<defs>
<clipPath id="clip0_1_93">
<rect width="91.375" height="34" fill="white" transform="translate(0.383911)"/>
</clipPath>
</defs>
</svg>
