<svg width="35" height="34" viewBox="0 0 35 34" fill="none" xmlns="http://www.w3.org/2000/svg">
<g id="Icon">
<path id="Vector 449 (Stroke)" fill-rule="evenodd" clip-rule="evenodd" d="M21.2049 2.25945C21.6316 2.49737 21.8411 2.99566 21.7126 3.46704L18.8911 13.8125H29.1875C29.6106 13.8125 29.9933 14.0635 30.162 14.4515C30.3306 14.8395 30.2529 15.2906 29.9642 15.5999L15.0892 31.5374C14.7559 31.8946 14.2219 31.9784 13.7951 31.7405C13.3684 31.5026 13.1589 31.0043 13.2874 30.5329L16.1089 20.1875H5.81249C5.38941 20.1875 5.00664 19.9365 4.83802 19.5484C4.6694 19.1604 4.74707 18.7093 5.03575 18.4L19.9107 2.46251C20.2441 2.10532 20.7781 2.02154 21.2049 2.25945Z" fill="#262626"/>
</g>
</svg>
