<svg width="34" height="38" viewBox="0 0 34 38" fill="none" xmlns="http://www.w3.org/2000/svg">
<path id="Vector" d="M17 2.36111C21.1039 2.36111 24.4375 6.0651 24.4375 10.625C24.4375 15.1849 21.1039 18.8889 17 18.8889C12.8961 18.8889 9.5625 15.1849 9.5625 10.625C9.5625 6.0651 12.8961 2.36111 17 2.36111ZM25.5 25.9722C29.0129 25.9722 31.875 29.1523 31.875 33.0556V35.4167H2.125V33.0556C2.125 29.1523 4.98711 25.9722 8.5 25.9722C14.1445 25.9722 12.9691 27.1528 17 27.1528C21.0441 27.1528 19.8488 25.9722 25.5 25.9722ZM17 0C11.7207 0 7.4375 4.75911 7.4375 10.625C7.4375 16.4909 11.7207 21.25 17 21.25C22.2793 21.25 26.5625 16.4909 26.5625 10.625C26.5625 4.75911 22.2793 0 17 0ZM25.5 23.6111C19.3641 23.6111 20.7852 24.7917 17 24.7917C13.2281 24.7917 14.6293 23.6111 8.5 23.6111C3.80508 23.6111 0 27.839 0 33.0556V35.4167C0 36.7227 0.949609 37.7778 2.125 37.7778H31.875C33.0504 37.7778 34 36.7227 34 35.4167V33.0556C34 27.839 30.1949 23.6111 25.5 23.6111Z" fill="white"/>
</svg>
